<?xml version="1.0" standalone="no"?><!DOCTYPE svg PUBLIC "-//W3C//DTD SVG 1.1//EN" "http://www.w3.org/Graphics/SVG/1.1/DTD/svg11.dtd"><svg t="1657875731145" class="icon" viewBox="0 0 1024 1024" version="1.1" xmlns="http://www.w3.org/2000/svg" p-id="9699" width="81" height="81" xmlns:xlink="http://www.w3.org/1999/xlink"><defs><style type="text/css">@font-face { font-family: feedback-iconfont; src: url("//at.alicdn.com/t/font_1031158_u69w8yhxdu.woff2?t=1630033759944") format("woff2"), url("//at.alicdn.com/t/font_1031158_u69w8yhxdu.woff?t=1630033759944") format("woff"), url("//at.alicdn.com/t/font_1031158_u69w8yhxdu.ttf?t=1630033759944") format("truetype"); }
</style></defs><path d="M323.2 896m-64 0a64 64 0 1 0 128 0 64 64 0 1 0-128 0Z" fill="#808080" p-id="9700"></path><path d="M832 896m-64 0a64 64 0 1 0 128 0 64 64 0 1 0-128 0Z" fill="#808080" p-id="9701"></path><path d="M940.8 284.8c-16-19.2-38.4-28.8-64-28.8H249.6l-22.4-112C220.8 99.2 182.4 64 134.4 64H96c-19.2 0-32 16-32 32s12.8 32 32 32h38.4c12.8 0 25.6 9.6 28.8 25.6L192 310.4l51.2 371.2C249.6 729.6 288 768 332.8 768h486.4c44.8 0 83.2-32 89.6-73.6L960 355.2c3.2-25.6-3.2-51.2-19.2-70.4z" fill="#808080" p-id="9702"></path></svg>