<?xml version="1.0" standalone="no"?><!DOCTYPE svg PUBLIC "-//W3C//DTD SVG 1.1//EN" "http://www.w3.org/Graphics/SVG/1.1/DTD/svg11.dtd"><svg t="1657875968017" class="icon" viewBox="0 0 1024 1024" version="1.1" xmlns="http://www.w3.org/2000/svg" p-id="10393" width="81" height="81" xmlns:xlink="http://www.w3.org/1999/xlink"><defs><style type="text/css">@font-face { font-family: feedback-iconfont; src: url("//at.alicdn.com/t/font_1031158_u69w8yhxdu.woff2?t=1630033759944") format("woff2"), url("//at.alicdn.com/t/font_1031158_u69w8yhxdu.woff?t=1630033759944") format("woff"), url("//at.alicdn.com/t/font_1031158_u69w8yhxdu.ttf?t=1630033759944") format("truetype"); }
</style></defs><path d="M896 602.208 896 424.96c39.328-37.888 63.968-90.944 63.968-149.728 0-114.688-93.312-208-208-208-57.216 0-109.088 23.232-146.752 60.736l-183.424 0c-37.888-39.328-90.912-63.936-149.696-63.936-114.688 0-208 93.312-208 208 0 58.752 24.608 111.808 63.904 149.664l0 180.576c-39.328 37.888-63.904 90.912-63.904 149.664 0 114.688 93.312 208 208 208 58.752 0 111.808-24.64 149.696-63.936l180.512 0c37.888 39.328 90.912 63.936 149.696 63.936 114.688 0 208-93.312 208-208C959.968 693.152 935.328 640.096 896 602.208zM464.032 832c10.304-24.672 16.064-51.68 16.064-80.064 0-114.688-93.312-208-208-208-28.384 0-55.424 5.76-80.096 16.096L192 464c24.672 10.336 51.712 16.064 80.096 16.064 114.688 0 208-93.312 208-208 0-28.352-5.76-55.392-16.064-80.064l97.44 0c-11.2 25.504-17.504 53.632-17.504 83.264 0 114.688 93.312 208 208 208 28.352 0 55.36-5.76 80.032-16.064l0 92.8c-24.672-10.304-51.68-16.064-80.032-16.064-114.688 0-208 93.312-208 208 0 28.384 5.76 55.392 16.064 80.064L464.032 832z" p-id="10394" fill="#808080"></path></svg>